<svg xmlns="http://www.w3.org/2000/svg" version="1.0" width="593.000000pt" height="606.000000pt" viewBox="0 0 593.000000 606.000000" preserveAspectRatio="xMidYMid meet">

<g transform="translate(0.000000,606.000000) scale(0.100000,-0.100000)" fill="#ef4444" stroke="none">
<path d="M0 3030 l0 -3030 2965 0 2965 0 0 3030 0 3030 -2965 0 -2965 0 0 -3030z m4236 1155 c163 -23 239 -45 351 -103 171 -88 286 -220 332 -382 7 -25 17 -58 22 -74 14 -46 10 -304 -6 -366 -55 -218 -162 -362 -348 -468 -163 -94 -357 -141 -622 -151 l-160 -6 0 -300 c0 -280 1 -303 20 -340 34 -67 68 -79 235 -85 l145 -5 3 -88 c2 -57 -1 -94 -9 -103 -10 -12 -110 -14 -618 -14 -333 0 -616 3 -629 6 -22 6 -23 10 -20 103 l3 96 107 5 c122 6 149 18 183 86 20 38 20 59 20 954 0 884 -1 917 -19 959 -28 60 -60 74 -186 81 l-105 5 -3 80 c-2 44 0 90 3 102 l5 23 593 0 c479 0 615 -3 703 -15z m-2146 -595 c203 -49 310 -106 414 -221 140 -155 196 -335 196 -626 l0 -163 -562 -2 -563 -3 2 -88 c3 -226 96 -427 230 -500 84 -45 173 -61 276 -48 162 21 284 87 370 201 27 36 53 66 57 68 16 6 79 -60 90 -94 16 -47 8 -150 -14 -196 -22 -45 -85 -111 -141 -146 -46 -29 -181 -77 -263 -93 -104 -20 -370 -23 -464 -4 -222 44 -380 126 -489 257 -106 127 -146 218 -199 460 -14 63 -13 380 1 470 18 114 56 234 107 338 38 79 60 109 131 180 172 170 375 236 691 223 52 -2 111 -8 130 -13z" fill="#ef4444"/>
<path d="M3805 3958 c-3 -7 -4 -258 -3 -558 l3 -545 95 3 c207 5 327 66 393 199 87 176 88 555 2 724 -54 104 -141 160 -278 179 -109 14 -206 13 -212 -2z" fill="#ef4444"/>
<path d="M1814 3356 c-135 -50 -214 -199 -230 -435 l-7 -98 29 -6 c46 -9 476 -8 509 1 27 7 30 13 31 48 3 105 -36 309 -73 379 -53 100 -162 147 -259 111z" fill="#ef4444"/>
</g>
</svg>